<svg width="379" height="17" viewBox="0 0 379 17" fill="none" xmlns="http://www.w3.org/2000/svg">
<path d="M5.68005 5.22998C16.5101 5.22998 16.51 11.23 27.33 11.23C38.15 11.23 38.16 5.22998 48.98 5.22998C59.8 5.22998 59.81 11.23 70.63 11.23C81.45 11.23 81.46 5.22998 92.28 5.22998C103.1 5.22998 103.11 11.23 113.93 11.23C124.75 11.23 124.76 5.22998 135.58 5.22998C146.4 5.22998 146.4 11.23 157.23 11.23C168.06 11.23 168.06 5.22998 178.88 5.22998C189.7 5.22998 189.7 11.23 200.53 11.23C211.36 11.23 211.36 5.22998 222.18 5.22998C233 5.22998 233.01 11.23 243.83 11.23C254.65 11.23 254.66 5.22998 265.49 5.22998C276.32 5.22998 276.32 11.23 287.15 11.23C297.98 11.23 297.98 5.22998 308.81 5.22998C319.64 5.22998 319.64 11.23 330.47 11.23C341.3 11.23 341.3 5.22998 352.13 5.22998C362.96 5.22998 362.96 11.23 373.79 11.23" fill="#FFB96C"/>
<path d="M5.68005 5.22998C16.5101 5.22998 16.51 11.23 27.33 11.23C38.15 11.23 38.16 5.22998 48.98 5.22998C59.8 5.22998 59.81 11.23 70.63 11.23C81.45 11.23 81.46 5.22998 92.28 5.22998C103.1 5.22998 103.11 11.23 113.93 11.23C124.75 11.23 124.76 5.22998 135.58 5.22998C146.4 5.22998 146.4 11.23 157.23 11.23C168.06 11.23 168.06 5.22998 178.88 5.22998C189.7 5.22998 189.7 11.23 200.53 11.23C211.36 11.23 211.36 5.22998 222.18 5.22998C233 5.22998 233.01 11.23 243.83 11.23C254.65 11.23 254.66 5.22998 265.49 5.22998C276.32 5.22998 276.32 11.23 287.15 11.23C297.98 11.23 297.98 5.22998 308.81 5.22998C319.64 5.22998 319.64 11.23 330.47 11.23C341.3 11.23 341.3 5.22998 352.13 5.22998C362.96 5.22998 362.96 11.23 373.79 11.23" stroke="#FFB96C" stroke-width="10" stroke-miterlimit="10" stroke-linecap="round"/>
</svg>
